<?xml version="1.0" encoding="utf-8"?>
<!-- Generator: Adobe Illustrator 23.0.2, SVG Export Plug-In . SVG Version: 6.00 Build 0)  -->
<svg version="1.1" id="Layer_1" xmlns="http://www.w3.org/2000/svg" xmlns:xlink="http://www.w3.org/1999/xlink" x="0px" y="0px"
	 viewBox="0 0 396.8 360.73" style="enable-background:new 0 0 396.8 360.73;" xml:space="preserve">
<g>
	<path d="M253.62,88.25c-2.18,2.34-3.79,3.94-5.26,5.67c-11.91,14.11-23.75,28.27-35.68,42.37c-4.94,5.84-10.07,11.52-15.04,17.34
		c-2.35,2.75-5.17,3.86-8.79,3.76c-6.49-0.18-12.99-0.08-19.49-0.03c-5.31,0.04-5.62,0.13-6.77,5.28
		c-3.53,15.74-12.49,27.79-25.24,37.18c-8.06,5.94-17.28,8.97-27.15,10.67c-13.67,2.35-26.45-0.6-38.1-7.05
		c-17.18-9.5-27.97-24.2-31.57-43.86c-3.15-17.2,0.52-32.91,10.74-46.82C61.33,99.1,74.85,90.52,91.76,87.4
		c9.97-1.84,19.54-0.73,29.05,2.28c5.22,1.65,5.25,1.67,8.19-3.2c5.17-8.55,10.32-17.12,15.44-25.7c1.77-2.96,1.09-8.85-1.29-11.1
		c-0.55-0.52-1.42-0.81-2.19-0.96c-0.62-0.12-1.31,0.14-1.97,0.21c-3.78,0.39-8.24,1.72-10.41-2.42c-2.4-4.59-3.31-9.88-1.07-14.95
		c1.61-3.65,4.77-5.71,8.81-5.41c9.28,0.69,18.59,1.36,27.81,2.61c5.59,0.76,8.81,7.16,6.57,12.36c-0.7,1.62-2.57,2.8-4.05,3.99
		c-0.59,0.47-1.71,0.23-2.36,0.67c-0.88,0.58-1.54,1.5-2.3,2.27c0.97,0.74,1.85,1.68,2.93,2.15c0.86,0.37,1.97,0.18,2.97,0.19
		c22.66,0.01,45.32,0.01,67.98-0.01c1.44,0,2.89-0.26,5.21-0.48c-1.22-3.14-2.02-5.81-3.27-8.24c-1.25-2.42-3.59-3.31-6.3-3.3
		c-4.33,0.01-8.67,0.11-12.99-0.12c-3.63-0.19-6.92-1.37-8.53-5.07c-2.47-5.67,0.44-11.72,6.69-12.37
		c7.91-0.82,15.98-1.38,23.78,1.15c5.48,1.78,9.53,5.47,12.33,10.38c1.72,3.02,3.09,6.28,4.24,9.57c4.88,14,9.61,28.05,14.41,42.08
		c1.87,5.46,2.1,5.57,7.96,4.47c1.96-0.37,3.92-0.77,5.9-1.07c20.03-2.96,36.99,3.27,51.63,16.93c9.34,8.72,15.1,19.37,17.85,31.71
		c6.56,29.46-10.06,58.06-35.02,69.23c-7.87,3.52-16.01,6.01-24.58,5.96c-15.63-0.1-29.67-4.83-41.77-15.22
		c-15.07-12.94-22.08-29.49-21.81-48.91c0.21-15.12,5.69-28.63,16.33-39.73c2.3-2.4,4.64-4.79,7.15-6.98
		c1.77-1.54,2.31-3.16,1.42-5.29C255.63,93.05,254.77,91,253.62,88.25z M263.57,116.41c-12.35,12-16.64,25.83-13.39,41.53
		c3.25,15.69,12.52,26.92,27.81,32.69c18.69,7.04,41.32,1.03,53.22-17.16c14.36-21.94,6.06-49.07-11.2-60.94
		c-11.19-7.7-23.42-9.96-36.6-7.12c-3.72,0.8-4.11,1.82-2.86,5.3c2.93,8.18,6.51,16.04,12,22.88c2.5,3.11,5.13,6.11,7.62,9.22
		c3.01,3.77,2.85,9.33-0.27,12.31c-2.99,2.85-8.34,2.93-11.95,0.12c-0.91-0.71-1.77-1.53-2.53-2.41
		c-7.86-9.13-14.6-18.98-19.13-30.22C265.57,120.78,264.72,119,263.57,116.41z M116.14,107.27c-1.37-0.74-2.3-1.61-3.33-1.74
		c-3.94-0.52-7.92-1.23-11.87-1.12c-18.77,0.54-32.35,9.48-40.08,26.5c-7.46,16.43-3.56,36.59,9.2,49.57
		c18.27,18.58,52.58,18.53,69.6-7.8c1.97-3.04,3.4-6.49,4.69-9.89c1.54-4.07,0.71-5.16-3.49-5.4c-1.16-0.07-2.33-0.03-3.5-0.03
		c-10.66,0-21.31,0-31.97-0.01c-1.5,0-3.01,0.04-4.49-0.13c-4.77-0.55-7.73-3.64-7.32-8.39c0.22-2.53,1.25-5.18,2.55-7.41
		c5.85-10.08,11.93-20.02,17.9-30.02C114.78,110.17,115.35,108.84,116.14,107.27z M169.34,69.17c0.4,4.74,19.37,61.84,21.86,65.07
		c18.39-21.47,36.5-42.93,54.74-64.67C241.55,68.07,174.7,67.88,169.34,69.17z M173.35,139.7c-6.66-19.98-13.04-39.14-19.71-59.16
		c-1.28,1.6-1.95,2.28-2.43,3.07c-2.54,4.11-5.06,8.23-7.52,12.38c-2.47,4.17-2.32,4.69,1.12,8.06c4.89,4.81,9.44,9.93,12.08,16.37
		c2.07,5.06,3.95,10.21,5.64,15.42c1.24,3.82,1.86,4.55,5.96,4.5C169.76,140.31,171.04,140.01,173.35,139.7z M133.13,116.63
		c-0.56,0.03-1.12,0.06-1.69,0.08c-4.38,7.36-9.5,14.31-12.67,22.3c0.79,0.56,1.06,0.91,1.33,0.91c7.44,0.13,14.87,0.31,22.31,0.29
		c2.4-0.01,3.23-1.78,2.38-3.82c-1.71-4.12-3.43-8.27-5.64-12.13C137.56,121.48,135.17,119.15,133.13,116.63z"/>
	<path d="M63.98,309.77c2.34-0.16,4.07-0.36,5.81-0.37c9.33-0.03,18.67-0.18,27.99,0.05c4.48,0.11,7.39-1.05,9.48-5.43
		c2.86-5.99,6.51-11.62,10-17.29c2.08-3.38,2-6.43-0.03-9.79c-3.87-6.42-7.62-12.91-11.25-19.47c-1.45-2.62-3.62-3.14-6.27-3.13
		c-8,0.03-16,0-24,0c-3.63,0-7.26,0-11.48,0c0.55-1.59,0.64-2.61,1.18-3.26c9.73-11.8,22.22-19.01,37.49-19.23
		c18.5-0.26,33.69,7.27,43.74,23.33c2.32,3.71,4.82,5.28,9.2,5.26c28.16-0.15,56.33-0.14,84.49-0.01c4.13,0.02,6.6-1.32,8.8-4.96
		c13.45-22.2,40.07-28.83,62.01-19.46c14.33,6.12,23.96,17.12,28.23,32.39c5.12,18.31,0.55,34.42-12.06,48.09
		c-8.26,8.96-18.87,13.75-31.25,14.97c-15.51,1.54-28.5-3.57-39.65-13.84c-3.13-2.88-5.57-6.63-7.84-10.29
		c-1.69-2.72-3.58-4.03-6.8-4.02c-29.16,0.07-58.33,0.06-87.49,0c-3.01-0.01-4.89,1.14-6.45,3.72
		c-9.3,15.47-23.45,23.39-41.05,24.94c-8.37,0.74-16.51-1.56-24.14-5.25c-6.74-3.26-12.06-8.25-16.96-13.76
		C65.08,312.3,64.79,311.33,63.98,309.77z M291.26,309.36c3.99,0,7.99-0.07,11.97,0.02c2.79,0.06,4.75-1.05,6.13-3.45
		c4.07-7.06,8.17-14.09,12.28-21.12c1.1-1.88,1.26-3.72,0.13-5.65c-4.2-7.17-8.38-14.35-12.54-21.55c-1.29-2.23-3.14-3.27-5.73-3.26
		c-7.98,0.05-15.97,0.06-23.95-0.01c-2.79-0.03-4.75,1.05-6.13,3.45c-4.07,7.06-8.17,14.09-12.28,21.12
		c-1.1,1.88-1.26,3.72-0.13,5.65c4.2,7.17,8.39,14.35,12.54,21.55c1.41,2.46,3.5,3.33,6.23,3.27
		C283.61,309.31,287.44,309.37,291.26,309.36z"/>
</g>
</svg>
